name C:\Users\u0150099\Documents\master_thesis\3dpredictsim\Results\debug\Fal_s1_mtj_sc_cspx10_oy_TrackAnkleQ_MTPm_k1_d01_MTJm_nl_MG_exp_table_d01_PF_Gefen2002_ls146_FDB_ig21_v2.mot
datacolumns 130
datarows 4
range 1.07950377 1.11188888
endheader
time	pelvis_tilt	pelvis_list	pelvis_rotation	pelvis_tx	pelvis_ty	pelvis_tz	hip_flexion_l	hip_adduction_l	hip_rotation_l	hip_flexion_r	hip_adduction_r	hip_rotation_r	knee_angle_l	knee_angle_r	ankle_angle_l	ankle_angle_r	subtalar_angle_l	subtalar_angle_r	mtj_angle_l	mtj_angle_r	mtp_angle_l	mtp_angle_r	lumbar_extension	lumbar_bending	lumbar_rotation	arm_flex_l	arm_add_l	arm_rot_l	arm_flex_r	arm_add_r	arm_rot_r	elbow_flex_l	elbow_flex_r	pro_sup_l	pro_sup_r	glut_med1_l/activation	glut_med2_l/activation	glut_med3_l/activation	glut_min1_l/activation	glut_min2_l/activation	glut_min3_l/activation	semimem_l/activation	semiten_l/activation	bifemlh_l/activation	bifemsh_l/activation	sar_l/activation	add_long_l/activation	add_brev_l/activation	add_mag1_l/activation	add_mag2_l/activation	add_mag3_l/activation	tfl_l/activation	pect_l/activation	grac_l/activation	glut_max1_l/activation	glut_max2_l/activation	glut_max3_l/activation	iliacus_l/activation	psoas_l/activation	quad_fem_l/activation	gem_l/activation	peri_l/activation	rect_fem_l/activation	vas_med_l/activation	vas_int_l/activation	vas_lat_l/activation	med_gas_l/activation	lat_gas_l/activation	soleus_l/activation	tib_post_l/activation	flex_dig_l/activation	flex_hal_l/activation	tib_ant_l/activation	per_brev_l/activation	per_long_l/activation	per_tert_l/activation	ext_dig_l/activation	ext_hal_l/activation	FDB_l/activation	ercspn_l/activation	intobl_l/activation	extobl_l/activation	glut_med1_r/activation	glut_med2_r/activation	glut_med3_r/activation	glut_min1_r/activation	glut_min2_r/activation	glut_min3_r/activation	semimem_r/activation	semiten_r/activation	bifemlh_r/activation	bifemsh_r/activation	sar_r/activation	add_long_r/activation	add_brev_r/activation	add_mag1_r/activation	add_mag2_r/activation	add_mag3_r/activation	tfl_r/activation	pect_r/activation	grac_r/activation	glut_max1_r/activation	glut_max2_r/activation	glut_max3_r/activation	iliacus_r/activation	psoas_r/activation	quad_fem_r/activation	gem_r/activation	peri_r/activation	rect_fem_r/activation	vas_med_r/activation	vas_int_r/activation	vas_lat_r/activation	med_gas_r/activation	lat_gas_r/activation	soleus_r/activation	tib_post_r/activation	flex_dig_r/activation	flex_hal_r/activation	tib_ant_r/activation	per_brev_r/activation	per_long_r/activation	per_tert_r/activation	ext_dig_r/activation	ext_hal_r/activation	FDB_r/activation	ercspn_r/activation	intobl_r/activation	extobl_r/activation	
          1.07950377	         -2.92266308	         -1.75211165	          5.03829721	          1.43574002	          0.90481794	         -0.00661820	        -12.12614712	          2.96145145	          5.47510989	         29.39550243	          2.96351963	         -3.60819375	        -18.24335288	         -9.97031872	          2.03525472	          2.46831193	        -10.11131742	         -8.72401383	          2.11227070	         -3.20492584	         26.56099015	          9.67036967	         -3.29560889	          0.63818142	         -0.94367451	          3.49418815	        -14.12235457	         19.31626583	         -4.70080400	        -13.48686571	          7.02805877	         35.99073692	         23.52536647	         86.51662706	         86.51662706	          0.28825427	          0.05000011	          0.05000004	          0.47929834	          0.11899422	          0.05000020	          0.05000033	          0.05000006	          0.05000006	          0.05000005	          0.05002325	          0.05960257	          0.05000019	          0.05000057	          0.05000139	          0.05000048	          0.45871395	          0.05000524	          0.05000014	          0.05000123	          0.05000068	          0.05000055	          0.47363117	          0.69105892	          0.05000007	          0.05000017	          0.05000005	          0.45539531	          0.23467421	          0.24093590	          0.20343180	          0.29990207	          0.46532941	          0.19480670	          0.73323825	          0.32558162	          0.58333169	          0.05000000	          0.26396995	          0.86453660	          0.05000010	          0.05000000	          0.10110578	          0.99998448	          0.05000002	          0.05000000	          0.05000004	          0.05000021	          0.05000009	          0.05006411	          0.05000006	          0.05000009	          0.05000033	          0.33149171	          0.09820449	          0.36515047	          0.06961027	          0.05899608	          0.13212382	          0.12442837	          0.13585458	          0.11287404	          0.13287749	          0.05000057	          0.05905784	          0.19514142	          0.05000196	          0.05169783	          0.10610982	          0.06213966	          0.05505218	          0.17062466	          0.05000067	          0.05000012	          0.05000002	          0.05000005	          0.05000005	          0.05000004	          0.05899609	          0.05899859	          0.05158269	          0.12358492	          0.07010026	          0.06961076	          0.36604352	          0.29868133	          0.31596864	          0.10963438	          0.48348495	          0.05706180	          0.34170912	          0.05225573	          0.11466726	          0.09821804	
          1.09029881	         -2.92742567	         -1.89253083	          5.29593289	          1.45275735	          0.90330205	         -0.00626742	        -12.84335090	          2.56354010	          5.11769029	         29.18924200	          3.37649475	         -3.54355363	        -18.59661634	        -10.28721487	          1.17783092	          1.81070653	         -9.76005684	         -8.91348298	          1.12809222	         -2.74404950	         29.16195771	          9.05394290	         -3.12147430	          0.83568806	         -1.07728948	          3.22466012	        -14.08778534	         19.38771433	         -5.47244415	        -13.45879879	          6.40872550	         37.03100383	         23.11085739	         86.51662706	         86.51662706	          0.28158304	          0.05000003	          0.05000001	          0.40621388	          0.10084969	          0.05000011	          0.05000084	          0.05000009	          0.05000006	          0.05000010	          0.05000040	          0.07745576	          0.14184867	          0.05000040	          0.05000151	          0.05143727	          0.49875792	          0.05891286	          0.05000011	          0.05000034	          0.05000022	          0.05000024	          0.40141051	          0.65985957	          0.05000001	          0.05000006	          0.05000006	          0.40788426	          0.23422593	          0.23660835	          0.20616405	          0.27138285	          0.45098279	          0.17413293	          0.69944398	          0.40896530	          0.60037667	          0.05000000	          0.22371904	          0.73270952	          0.05000004	          0.05000000	          0.08568890	          0.93751835	          0.05000000	          0.05000003	          0.08201015	          0.05899583	          0.05899581	          0.05000004	          0.05899587	          0.05899586	          0.05009146	          0.28434431	          0.08322999	          0.32064833	          0.05899590	          0.05000035	          0.18856783	          0.18870905	          0.16907676	          0.14436171	          0.13988402	          0.05000006	          0.05007828	          0.16538576	          0.05000021	          0.05000045	          0.14504880	          0.09098116	          0.07484381	          0.40989638	          0.22114813	          0.08001110	          0.05000002	          0.05000004	          0.05000004	          0.05000003	          0.05000019	          0.05000232	          0.05000000	          0.10474045	          0.05941255	          0.05899646	          0.36994371	          0.25313764	          0.33819931	          0.09291703	          0.54334707	          0.05899609	          0.30241325	          0.05000001	          0.09718246	          0.08324152	
          1.10109385	         -2.92904551	         -2.03493277	          5.52559985	          1.47005952	          0.90185576	         -0.00587084	        -13.46634653	          2.15927360	          4.74442065	         29.00817422	          3.76142665	         -3.48148911	        -19.09331173	        -11.35338133	          0.32144573	          0.63449489	         -9.33860385	         -9.15865603	         -0.20350611	         -2.08114500	         32.16741875	          8.54470160	         -2.93624063	          1.03517939	         -1.20661552	          2.87721102	        -14.03320229	         19.32524829	         -6.24378468	        -13.44970725	          6.07003362	         38.05791158	         22.65950962	         86.51662706	         86.51662706	          0.23864651	          0.05000182	          0.05485709	          0.34427324	          0.08547189	          0.05000096	          0.05894882	          0.05800276	          0.05572100	          0.05000019	          0.05000022	          0.21068168	          0.20379362	          0.05899581	          0.05899534	          0.07774112	          0.49980641	          0.05000029	          0.05000905	          0.05172004	          0.05899464	          0.05899568	          0.34020226	          0.58041809	          0.05899547	          0.05895425	          0.05000013	          0.38410698	          0.22163218	          0.22163281	          0.22163234	          0.23000161	          0.38904319	          0.14758063	          0.61442087	          0.34678656	          0.50883022	          0.05000001	          0.18960570	          0.62098382	          0.05000002	          0.05000001	          0.08213449	          0.79456279	          0.05000002	          0.06961015	          0.06961028	          0.05000000	          0.05000001	          0.05000141	          0.05000002	          0.05000002	          0.05000003	          0.24098665	          0.07053884	          0.27175492	          0.05000004	          0.05000013	          0.15981477	          0.27567779	          0.26912977	          0.12235560	          0.16282645	          0.05899586	          0.08229095	          0.14016729	          0.05000044	          0.12078426	          0.18592672	          0.07710823	          0.08213423	          0.65685024	          0.18742687	          0.06781089	          0.08210427	          0.12772590	          0.12531863	          0.09597730	          0.06961025	          0.07063667	          0.06961023	          0.08876932	          0.06961017	          0.05000054	          0.50565986	          0.32771850	          0.28662969	          0.35053843	          0.55382770	          0.05000028	          0.25630038	          0.05000000	          0.08236379	          0.07054861	
          1.11188888	         -2.92852862	         -2.19718891	          5.73398200	          1.48760059	          0.90054402	         -0.00547510	        -13.98795150	          1.73045216	          4.35306856	         28.75294788	          4.07363326	         -3.34463737	        -19.71470337	        -12.68227776	         -0.57941818	         -0.55071758	         -8.86276906	         -9.41976443	         -1.88737468	         -1.57484004	         35.59188409	          8.17579119	         -2.73979915	          1.25771062	         -1.32993705	          2.46252960	        -13.96296147	         19.19342471	         -7.01366654	        -13.46369394	          5.96860524	         39.08027408	         22.17836504	         86.51662706	         86.51662706	          0.29657353	          0.05000001	          0.05000000	          0.59115737	          0.07243898	          0.05000004	          0.05000077	          0.05000006	          0.05000003	          0.05899583	          0.05899605	          0.20510573	          0.23382149	          0.05000017	          0.05000034	          0.06588702	          0.51056625	          0.06965784	          0.05000010	          0.05000016	          0.05000009	          0.05000008	          0.28832724	          0.66333827	          0.05000000	          0.05000002	          0.05000001	          0.33976790	          0.18783711	          0.18783763	          0.18783724	          0.19493028	          0.32972076	          0.12507710	          0.52073216	          0.29390794	          0.43124235	          0.05000000	          0.16069409	          0.52629438	          0.05000011	          0.05000001	          0.06961043	          0.67340551	          0.05946763	          0.05899579	          0.05899590	          0.36836453	          0.33217375	          0.32055329	          0.39129120	          0.37837102	          0.30305047	          0.20424032	          0.15203784	          0.23031699	          0.12292593	          0.08213434	          0.13544576	          0.23364164	          0.22809209	          0.10369848	          0.21156472	          0.05000017	          0.06974316	          0.19775539	          0.20311420	          0.20976625	          0.15757643	          0.06961012	          0.06961019	          0.55669178	          0.15884750	          0.09945559	          0.06958477	          0.10824988	          0.10620967	          0.08134240	          0.05899587	          0.05986578	          0.05899585	          0.20576240	          0.05899583	          0.05103745	          0.61966700	          0.27774702	          0.34873208	          0.62233339	          0.71444529	          0.13722551	          0.56753328	          0.07004751	          0.11434783	          0.05979115	
